<?xml version="1.0" encoding="utf-8"?>
<!-- Generator: Adobe Illustrator 19.2.1, SVG Export Plug-In . SVG Version: 6.00 Build 0)  -->
<svg version="1.1" id="layer" xmlns="http://www.w3.org/2000/svg" xmlns:xlink="http://www.w3.org/1999/xlink" x="0px" y="0px"
	 viewBox="0 0 652 652" style="enable-background:new 0 0 652 652;" xml:space="preserve">
<style type="text/css">
	.st0{fill:#0A0D2C;}
	.st1{fill:#030000;}
	.st2{fill:#004C24;}
	.st3{fill:#940B13;}
	.st4{fill:#011132;}
</style>
<polygon class="st0" points="153.9,461.6 158.4,461.6 163,475.2 167.6,461.6 172.1,461.6 172.1,479.8 168.6,479.8 168.6,467.7 
	164.4,479.8 161.5,479.8 157.3,467.7 157.3,479.8 153.9,479.8 "/>
<path class="st0" d="M190,472.5l-2.2-6.5l-2.2,6.5H190z M186.1,461.6h3.6l6.8,18.2h-4.1l-1.5-4.2h-6.4l-1.5,4.2h-3.9L186.1,461.6z"
	/>
<rect x="203.7" y="461.6" class="st0" width="3.8" height="18.2"/>
<polygon class="st0" points="216.4,461.6 219.8,461.6 227.3,473.6 227.3,461.6 231,461.6 231,479.8 227.6,479.8 220.1,468 
	220.1,479.8 216.4,479.8 "/>
<polygon class="st0" points="239.8,461.6 252.2,461.6 252.2,464.9 243.6,464.9 243.6,468.9 251.7,468.9 251.7,472.1 243.6,472.1 
	243.6,476.6 252.7,476.6 252.3,479.8 239.8,479.8 "/>
<rect x="281" y="470.5" class="st0" width="7.6" height="3.5"/>
<polygon class="st0" points="318.3,461.6 321.7,461.6 329.2,473.6 329.2,461.6 332.9,461.6 332.9,479.8 329.5,479.8 322,468 
	322,479.8 318.3,479.8 "/>
<g>
	<path class="st0" d="M349.8,477c1.6,0,2.8-0.5,3.6-1.6c0.8-1.1,1.2-2.6,1.2-4.7c0-2-0.4-3.6-1.2-4.6c-0.8-1.1-2-1.6-3.6-1.6
		c-1.6,0-2.8,0.5-3.6,1.6c-0.8,1.1-1.2,2.6-1.2,4.6c0,2,0.4,3.6,1.2,4.7C347,476.5,348.2,477,349.8,477 M349.8,480.3
		c-1.4,0-2.6-0.2-3.6-0.7c-1.1-0.4-2-1.1-2.7-1.9c-0.7-0.8-1.3-1.8-1.7-3c-0.4-1.2-0.6-2.5-0.6-4c0-1.5,0.2-2.8,0.6-4
		c0.4-1.2,1-2.2,1.7-3c0.8-0.8,1.7-1.5,2.7-1.9c1.1-0.4,2.3-0.7,3.6-0.7c1.4,0,2.6,0.2,3.6,0.7c1.1,0.4,2,1.1,2.7,1.9
		c0.7,0.8,1.3,1.8,1.7,3c0.4,1.2,0.6,2.5,0.6,4c0,1.5-0.2,2.8-0.6,4c-0.4,1.2-0.9,2.2-1.7,3c-0.7,0.8-1.6,1.5-2.7,1.9
		C352.4,480.1,351.2,480.3,349.8,480.3"/>
</g>
<polygon class="st0" points="364,461.6 368.3,461.6 372.7,474.5 377.2,461.6 381.3,461.6 374.4,479.8 370.9,479.8 "/>
<path class="st0" d="M395.2,472.5L393,466l-2.2,6.5H395.2z M391.3,461.6h3.6l6.8,18.2h-4.1l-1.5-4.2h-6.4l-1.5,4.2h-3.9L391.3,461.6
	z"/>
<g>
	<path class="st0" d="M422.4,473.9c0.1,1.1,0.4,1.9,1.1,2.4c0.6,0.5,1.6,0.8,2.8,0.8c0.6,0,1.1-0.1,1.5-0.2c0.4-0.1,0.7-0.3,1-0.5
		c0.3-0.2,0.4-0.5,0.5-0.8s0.2-0.6,0.2-0.9c0-0.5-0.2-0.9-0.5-1.3c-0.4-0.4-1-0.7-2-0.9l-2.4-0.4c-0.9-0.2-1.8-0.4-2.5-0.7
		c-0.7-0.3-1.3-0.6-1.8-1.1s-0.9-1-1.1-1.6c-0.3-0.6-0.4-1.4-0.4-2.2s0.2-1.6,0.5-2.3c0.4-0.7,0.8-1.2,1.5-1.7
		c0.6-0.4,1.4-0.8,2.2-1c0.9-0.2,1.8-0.3,2.9-0.3c1.3,0,2.4,0.2,3.3,0.5c0.9,0.3,1.6,0.7,2.1,1.2c0.5,0.5,0.9,1.1,1.2,1.7
		c0.3,0.7,0.4,1.4,0.5,2.1l-3.6,0.5c-0.2-1-0.5-1.7-1.1-2.2c-0.5-0.4-1.3-0.7-2.4-0.7c-0.6,0-1.2,0.1-1.6,0.2
		c-0.4,0.1-0.7,0.3-1,0.4c-0.3,0.2-0.4,0.4-0.5,0.6c-0.1,0.2-0.2,0.5-0.2,0.7c0,0.7,0.2,1.2,0.6,1.5c0.4,0.3,1,0.6,1.9,0.8l2.5,0.5
		c2,0.4,3.4,1,4.3,1.9c0.9,0.9,1.4,2.1,1.4,3.8c0,0.8-0.1,1.5-0.4,2.2c-0.3,0.7-0.7,1.3-1.3,1.8c-0.6,0.5-1.3,0.9-2.2,1.2
		c-0.9,0.3-1.9,0.4-3.1,0.4c-2.5,0-4.4-0.5-5.7-1.6c-1.3-1.1-2-2.7-2.1-4.8H422.4z"/>
	<path class="st0" d="M456.8,473.5c-0.1,1-0.3,1.9-0.7,2.7c-0.4,0.8-0.9,1.5-1.5,2.1c-0.6,0.6-1.4,1.1-2.3,1.4
		c-0.9,0.3-2,0.5-3.2,0.5c-1.4,0-2.6-0.2-3.6-0.7c-1-0.5-1.9-1.1-2.6-1.9c-0.7-0.8-1.2-1.8-1.6-3c-0.4-1.2-0.5-2.5-0.5-3.9
		c0-1.5,0.2-2.8,0.6-4c0.4-1.2,0.9-2.2,1.7-3c0.7-0.8,1.6-1.5,2.7-1.9c1-0.4,2.2-0.7,3.5-0.7c1.2,0,2.2,0.1,3,0.4
		c0.9,0.3,1.6,0.7,2.2,1.2c0.6,0.5,1.1,1.2,1.4,2c0.4,0.8,0.6,1.6,0.8,2.6l-3.8,0.5c-0.2-1.1-0.5-1.9-1.1-2.5
		c-0.5-0.6-1.4-0.9-2.5-0.9c-1.5,0-2.6,0.5-3.3,1.6c-0.8,1.1-1.1,2.6-1.1,4.6c0,2,0.4,3.6,1.2,4.7c0.8,1.1,1.9,1.6,3.2,1.6
		c1.2,0,2-0.3,2.6-0.9c0.6-0.6,0.9-1.5,1-2.6H456.8z"/>
	<path class="st0" d="M472.6,477c1.6,0,2.8-0.5,3.6-1.6c0.8-1.1,1.2-2.6,1.2-4.7c0-2-0.4-3.6-1.2-4.6c-0.8-1.1-2-1.6-3.6-1.6
		c-1.6,0-2.8,0.5-3.6,1.6c-0.8,1.1-1.2,2.6-1.2,4.6c0,2,0.4,3.6,1.2,4.7C469.8,476.5,471,477,472.6,477 M472.6,480.3
		c-1.4,0-2.6-0.2-3.6-0.7c-1.1-0.4-2-1.1-2.7-1.9c-0.7-0.8-1.3-1.8-1.7-3c-0.4-1.2-0.6-2.5-0.6-4c0-1.5,0.2-2.8,0.6-4
		c0.4-1.2,1-2.2,1.7-3c0.8-0.8,1.7-1.5,2.7-1.9c1.1-0.4,2.3-0.7,3.6-0.7c1.4,0,2.6,0.2,3.6,0.7c1.1,0.4,2,1.1,2.7,1.9
		c0.7,0.8,1.3,1.8,1.7,3c0.4,1.2,0.6,2.5,0.6,4c0,1.5-0.2,2.8-0.6,4c-0.4,1.2-0.9,2.2-1.7,3c-0.7,0.8-1.6,1.5-2.7,1.9
		C475.2,480.1,474,480.3,472.6,480.3"/>
</g>
<polygon class="st0" points="492.8,464.9 487.3,464.9 487.3,461.6 502.1,461.6 502.1,464.9 496.6,464.9 496.6,479.8 492.8,479.8 "/>
<rect x="509.6" y="461.6" class="st0" width="3.8" height="18.2"/>
<path class="st0" d="M531.3,472.5l-2.2-6.5l-2.2,6.5H531.3z M527.4,461.6h3.6l6.8,18.2h-4.1l-1.5-4.2H526l-1.5,4.2h-3.9L527.4,461.6
	z"/>
<g>
	<path class="st1" d="M147.7,377.3c-3.6,0-6,0.3-7.7,0.4l-0.7-1.1l4.6-6.1c4,1.2,11.6,1.8,19,1.8c9,0,16.3-0.6,21.8-1.9l0.6,0.6
		c-0.7,1.7-1.4,4.6-1.6,7.1c-1.9-0.5-4.6-0.8-8.4-0.8H169c-0.3,7.7-0.7,17.5-0.7,27.3c0,9.9,0.2,19.6,0.5,27.4
		c-1.8-0.3-4-0.5-6.3-0.5c-2.2,0-4.5,0.2-6.2,0.5c0.5-8.8,0.9-18,0.9-27.4c0-9.3-0.2-18.7-0.5-27.3H147.7z"/>
	<path class="st1" d="M254.1,404c-4.2,1-15,1-19,1c-5.9,0-12.7,0.3-18.6,0.8c-0.1,8.2-0.4,17-1.3,25.7H211c-2.7,0-5.9,0.5-8.2,1
		c0.4-9.9,0.6-19.3,0.6-29c0-11-0.3-21.6-1.3-32.6c9.2-0.2,5.1,0,13.6-0.5c0.3,10,0.8,21.1,0.8,31c6.5-0.3,14.8-0.4,19.8-0.4
		c10.8,0,18.2-0.1,18.3-5.5c0.3-9.1,0.6-16.2,1.1-24.6l13.3,0.5c-0.9,11-1.9,34.1-1.9,48.7c0,5,0.1,7.9,0.4,11.3
		c-5.1,0-9.6,0-13.6,1V404z"/>
	<path class="st1" d="M325.9,432c-9.2-0.3-15-0.5-27.1-0.5c-5.2,0-7,0.1-8.9,0.5c2.3-12.9,3-18.6,3-33.2c0-8.9-0.1-19.6-3.5-27.8
		c5.7,0.3,11.6,0.5,20,0.6c9.4,0,15.5-0.5,18.7-1.5l0.3,0.8l-4.7,5.9c-3-0.2-6.8-0.3-10.4-0.3c-3.2,0-6.2,0.1-8.5,0.3
		c0.1,3.9,0.3,8.3,0.3,12.6c0,3-0.1,5.9-0.3,8.5H316c3.4,0,7.6-0.5,9-1.3l0.8,0.5l-3.1,6.6c-1.5-0.2-3.5-0.3-6.7-0.3h-11
		c-0.3,7.9-0.6,15.3-1.1,23c1.7,0.1,3.8,0.2,5.6,0.2c1.4,0,14.9-0.3,19.5-1.1l0.7,1L325.9,432z"/>
	<path class="st1" d="M423.2,420.7c-8.6,6.8-17.2,11.7-26.7,11.7c-15.5,0-27-10.7-27-29.1c0-14.5,8.2-25.5,18.1-28l18.9-4.8
		c1.3-0.3,3-0.5,3.9-0.5c7.6,0,13.5,3.4,17.9,7.1l-10.2,8.7c-4.6-4.5-10.7-8.7-19-8.7c-8.1,0-16.9,8.5-16.9,24.2
		c0,21.5,18.4,23.7,21.8,23.7c6.2,0,10.9-1.6,17.3-6.8L423.2,420.7z"/>
	<path class="st1" d="M483.8,433c3.5-1.4,9.5-2,14.2-2c-10.6-20.2-24.4-49.5-27.8-61c-2.9,0.6-6.2,1-8.9,1
		c-2.8,10.5-26.9,50.7-33.7,61.1c4.1-0.7,8.3-1,12.5-1c2.5-6.1,7.9-16.2,11-21.5c4.9-1.4,16.4-1.6,21.5-1.8L483.8,433z M463.3,384.6
		c1.8,6.6,4.6,12.8,7.3,19.2c-5.9,0.2-11.8,0.5-17.7,1c4.1-6.5,7.9-14,10.2-20.2H463.3z"/>
	<path class="st1" d="M508,377.3c-3.6,0-6,0.3-7.7,0.4l-0.7-1.1l4.6-6.1c4,1.2,11.6,1.8,19,1.8c9,0,16.3-0.6,21.8-1.9l0.6,0.6
		c-0.7,1.7-1.3,4.6-1.6,7.1c-1.9-0.5-4.6-0.8-8.4-0.8h-6.4c-0.3,7.7-0.7,17.5-0.7,27.3c0,9.9,0.3,19.6,0.5,27.4
		c-1.8-0.3-4-0.5-6.3-0.5c-2.2,0-4.4,0.2-6.2,0.5c0.5-8.8,0.9-18,0.9-27.4c0-9.3-0.2-18.7-0.5-27.3H508z"/>
	<path class="st2" d="M527.4,336.9C333,247,178.8,303.1,149.3,344.8C151.7,334.8,317.5,252,527.4,336.9"/>
	<path class="st3" d="M214.9,216.2c38.5-19.2,131.3-50.3,260.7-20C337.9,155.5,251.7,190.8,214.9,216.2"/>
	<path class="st1" d="M571.3,301.6c21.2,3.6,54.4,22.9,54.4,22.9c-43.7-49.9-86-51.8-92.4-51.4C542.5,278.6,561.1,291.2,571.3,301.6
		"/>
	<path class="st3" d="M25.7,197c1.9,25.7,41.8,63.8,101.9,65.5C124.7,262.4,39,246.4,25.7,197"/>
	<path class="st1" d="M139,290.9c-32.6,12.1-49.2,28.8-59.3,38.3c4.1-15.2,38.7-58.1,94.3-66L139,290.9z"/>
	<path class="st4" d="M550,258.6c2.1-1-17.3-18.3-32.3-22.2c6.9-1.1,13,0.1,19.3,3c-0.1-1.5-0.3-2.9-0.5-4
		c0.5-6.4-23.9-5.1-47.8-35.3c-0.8,0.6-1.2,4.7-0.6,6.8c0.9,5.3,3,8.7,6.4,13.4c-107.7-29.6-202.8-6.1-250.2,7.2
		c-16,4.5-25.5,7-29.6,7c-48.3,12.8-108.7-6.3-153.8-31.5c2.6,7.3,54.4,45.7,137.4,53.8c-41.9,26.3-95.4,74.3-114.9,104.4
		c99.3-77.2,200.8-96.7,259.4-96.6c-45.6-5.5-87.3-5.1-124.5,3.2c33.6-15.4,177.7-43.1,390.7,83.7
		c-13.9-29.5-140.4-142.9-316.6-120.2c29.9-10.5,129.5-8.7,205.5,23.2c11,4.6,20.2,10,30.7,16.1C534,267.5,542,261.8,550,258.6"/>
</g>
</svg>
